<?xml version="1.0" standalone="no"?>
<!DOCTYPE svg PUBLIC "-//W3C//DTD SVG 20010904//EN"
 "http://www.w3.org/TR/2001/REC-SVG-20010904/DTD/svg10.dtd">
<svg version="1.0" xmlns="http://www.w3.org/2000/svg"
 width="1080.000000pt" height="342.000000pt" viewBox="0 0 1080.000000 342.000000"
 preserveAspectRatio="xMidYMid meet">

<g transform="translate(0.000000,342.000000) scale(0.100000,-0.100000)"
fill="#000000" stroke="none">
<path d="M1131 2276 c-32 -18 -50 -53 -51 -99 -1 -122 160 -154 214 -44 36 75
-15 157 -98 157 -22 -1 -52 -7 -65 -14z"/>
<path d="M1934 2256 c-27 -27 -34 -42 -34 -74 0 -74 72 -131 142 -112 55 16
83 53 83 112 0 43 -4 53 -33 79 -26 23 -42 29 -78 29 -39 0 -51 -5 -80 -34z"/>
<path d="M1491 2136 c-56 -31 -70 -132 -25 -185 56 -67 134 -27 142 73 4 48 1
56 -24 84 -35 37 -62 45 -93 28z"/>
<path d="M1510 990 l0 -130 119 0 c105 0 120 -2 124 -17 3 -10 5 48 6 130 l1
147 -125 0 -125 0 0 -130z"/>
<path d="M2061 998 c1 -68 5 -134 9 -148 5 -17 8 -19 9 -7 1 15 13 17 111 17
98 0 110 -2 111 -17 1 -12 4 -10 9 7 4 14 8 80 9 148 l1 122 -130 0 -130 0 1
-122z"/>
<path d="M2621 973 c1 -82 3 -140 6 -130 4 15 19 17 124 17 l119 0 0 130 0
130 -125 0 -125 0 1 -147z"/>
</g>
</svg>
